<?xml version="1.0" encoding="UTF-8" standalone="no"?>
<svg
   xmlns:dc="http://purl.org/dc/elements/1.1/"
   xmlns:cc="http://creativecommons.org/ns#"
   xmlns:rdf="http://www.w3.org/1999/02/22-rdf-syntax-ns#"
   xmlns:svg="http://www.w3.org/2000/svg"
   xmlns="http://www.w3.org/2000/svg"
   viewBox="0 0 189.33333 313.33334"
   height="313.33334"
   width="189.33333"
   xml:space="preserve"
   id="svg2"
   version="1.1"><metadata
     id="metadata8"><rdf:RDF><cc:Work
         rdf:about=""><dc:format>image/svg+xml</dc:format><dc:type
           rdf:resource="http://purl.org/dc/dcmitype/StillImage" /></cc:Work></rdf:RDF></metadata><defs
     id="defs6" /><g
     transform="matrix(1.3333333,0,0,-1.3333333,0,313.33333)"
     id="g10"><g
       transform="scale(0.1)"
       id="g12"><path
         id="path14"
         style="fill:#e6e6e6;fill-opacity:1;fill-rule:evenodd;stroke:none"
         d="m 1017.46,1966.52 c 15,-4.68 27.66,-8.82 38.01,-12.5 8.32,-2.65 15,-0.66 20,5.98 -0.67,0 -1.52,0.2 -2.5,0.51 -3.36,1.33 -6.99,2.65 -11.02,4.02 -13.67,4.34 -28,8.63 -43,12.97 0.35,-3.98 -0.16,-7.66 -1.49,-10.98 M 799.449,1300 l -0.5,-5.98 -0.469,-1.01 55.969,-10.98 c -0.308,-0.35 -0.82,-2.34 -1.48,-6.01 -0.668,-3.68 -0.86,-7.35 -0.508,-11.02 0.66,-3.63 2.66,-5.66 6.019,-5.98 3.629,0.32 6.321,1.84 7.969,4.5 1.36,3 2.18,6.01 2.5,8.98 0,3.01 0,4.69 0,5 0,0 0.352,-0.47 1.012,-1.48 0.348,3.98 0.82,7.34 1.488,10 l -54.5,11.01 -17.5,2.97 m 72.5,46.52 16.531,-3.51 c 0.309,0 0.309,0 0,0 0,0.66 0.309,3.51 0.969,8.51 -0.308,3.68 -2.34,6.18 -5.969,7.5 -3.679,0.98 -6.371,0.16 -8.011,-2.5 -1.989,-3 -3.168,-6.32 -3.52,-10 m -584.488,-119.49 91.488,57.97 -6.488,9.53 c 0,0.31 6.68,4.81 20,13.48 13.32,8.36 32.66,18.36 58.008,30 -7.66,1.99 -15.16,4.33 -22.5,6.99 -39.02,11.02 -71.168,30.86 -96.52,59.53 -11.648,-1.01 -22.308,1.13 -32,6.49 -11.988,1.68 -22.34,6.48 -30.969,14.49 -8.679,8.01 -14.179,18.16 -16.531,30.51 -1.64,11.68 -0.148,22.65 4.5,33 0,0 -0.32,-0.15 -0.98,-0.5 -3.36,10.66 -6.02,21.48 -8.008,32.5 -6.992,41.68 -4.18,81.68 8.519,120 12.301,38 32.5,71.83 60.469,101.48 28,29.69 62.031,52.7 102.031,69.02 -43.359,-14.33 -80.511,-36.68 -111.531,-66.99 -30.66,-30 -53,-64.84 -66.988,-104.53 -13.981,-39.65 -17.34,-81.33 -10,-125 1.988,-11.33 4.648,-22.15 8.008,-32.5 0.312,0 0.66,0 0.98,0 -5,-10.31 -6.488,-21.33 -4.5,-32.97 3.012,-15.35 10.512,-27.19 22.5,-35.51 11.68,-8.36 25.16,-11.32 40.512,-9.02 3.008,0.66 5.66,1.52 8.008,2.5 15.66,-20.31 34.492,-36.64 56.48,-48.98 22.352,-12.66 47,-21.33 74.031,-26.02 -26.679,-11.64 -46.839,-21.84 -60.511,-30.47 -14.02,-8.67 -21.02,-13.36 -21.02,-14.02 l 7,-9.49 -77,-48.52 c 1.332,-0.66 2.352,-1.64 3.012,-2.97 m 105.508,672.97 5.511,-1.48 c 0.969,5.35 1.481,8.16 1.481,8.51 0,0 -0.66,-0.66 -1.992,-2.03 -1.328,-1.64 -3.008,-3.32 -5,-5 m 180,-50.98 c -6.68,0.98 -13.52,1.84 -20.508,2.5 l 2.5,15 -50.512,13.48 -90,24.53 c 0,0 -0.148,-1.01 -0.5,-3.01 0,-1.99 -0.469,-4.18 -1.488,-6.52 l 54.488,-15 70.512,-18.98 -2.5,-16.02 c 30.348,-2.66 59.488,-9.49 87.5,-20.47 27.66,-11.01 53.668,-25.19 78.008,-42.5 16.64,-10.66 31.992,-23.16 45.98,-37.5 l 8,10.47 1.531,2.03 c -36.019,34.34 -77.699,60.16 -125,77.5 -19.031,5.31 -38.519,8.83 -58.519,10.47 l 0.508,4.02 m -19.02,188.01 c 1.672,-1.01 3.512,-2.03 5.5,-3.01 -3,-20 -1.828,-39.68 3.52,-59.02 5.312,-19.65 14.332,-38.48 26.992,-56.48 l 23.988,-2 c -15,18.99 -25.668,38.99 -32,60 -6.64,20.98 -8.32,42.35 -5,63.99 -1.64,0.66 -3.32,1.68 -5,3.01 -9.328,7.34 -14.84,16.32 -16.48,26.99 -1.68,11.01 0.82,21.33 7.5,31.01 5.66,7.35 12.5,12.15 20.511,14.5 -0.359,0.35 -0.511,0.5 -0.511,0.5 3.98,7.66 8.48,14.85 13.48,21.49 20,26.68 44.332,46.52 73,59.49 -5.66,8.01 -7.34,14.84 -5,20.51 2.352,5.35 7.352,9.02 15,11.01 -8.32,12.35 -16.328,24.14 -23.98,35.51 -8.008,11.33 -14.848,20.82 -20.508,28.48 -4.652,6.68 -5,13.16 -1.012,19.49 4.02,6.37 10.5,12.19 19.531,17.5 8.981,5 18.469,9.53 28.469,13.52 -10.969,-3.68 -22.5,-8.32 -34.488,-13.99 -12.34,-5.66 -21.84,-12.19 -28.512,-19.53 -6.648,-7.3 -7.148,-15.16 -1.488,-23.48 5.66,-7.65 12.34,-17.18 20,-28.51 8.008,-11.33 16.019,-23.17 23.988,-35.51 -7.308,-1.99 -12.148,-5.66 -14.5,-10.98 -2.34,-5.66 -0.66,-12.5 5,-20.5 -28.98,-13.01 -53.32,-32.86 -73,-59.5 -5.32,-6.68 -10,-13.82 -13.988,-21.52 0.348,0 0.508,0 0.508,0 -8.008,-2.66 -14.848,-7.66 -20.508,-15 -6.68,-9.65 -9.18,-19.8 -7.5,-30.47 1.68,-11.01 7.148,-20.19 16.488,-27.5 M 355.98,1940.51 c 0.309,0.35 0.661,0.86 0.969,1.52 4.031,2.97 8.36,4.14 13.012,3.48 4.34,-0.67 6.84,-0.98 7.5,-0.98 -0.352,0 -2.152,1.13 -5.512,3.48 -3.32,2.65 -5.82,5.66 -7.5,9.02 -2.648,1.64 -5.66,2.66 -8.98,2.97 -3.36,0.66 -6.02,-0.16 -8.008,-2.5 -1.992,-2.97 -1.84,-6.13 0.508,-9.49 2.34,-3.01 5,-5.51 8.011,-7.5 m 31.481,19.49 c 0,0.35 0,0.51 0,0.51 -1.332,1.33 -2.66,4.18 -3.981,8.51 -1.679,3.32 -3.679,5.82 -6.019,7.5 -2.66,1.64 -5.352,1.49 -8.012,-0.5 -3.668,-3.99 -5,-8.01 -3.98,-12 3.32,3.01 7.652,3.32 13.011,0.98 5,-2.3 7.969,-3.98 8.981,-5 m 475,-130.47 c -6.012,-2.34 -12.152,-4.33 -18.512,-6.01 6.672,-4.65 13.86,-7.15 21.52,-7.5 7.34,-0.67 14.492,0.82 21.48,4.49 -0.969,0.35 -2.148,1.01 -3.469,1.99 -7.351,0 -14.339,2.34 -21.019,7.03 m 158.519,231.49 c -3.36,-1.02 -6.84,-2.15 -10.51,-3.52 0.31,-0.31 0.66,-0.47 0.98,-0.47 3.35,1.33 6.52,2.66 9.53,3.99 m -237.5,-317.5 5,-3.52 98.469,-69.49 c 0,-0.31 -1.328,-1.84 -3.98,-4.49 -2.348,-3.01 -4.34,-6.49 -6.02,-10.51 -1.988,-3.67 -2.148,-6.84 -0.5,-9.49 2.031,-2.35 4.531,-2.35 7.5,0 3.352,2.34 6.52,5.15 9.531,8.51 -0.359,4.65 1.321,9.49 5,14.49 3.629,4.65 5.821,7.35 6.481,8.01 l -98.512,69.49 -13.48,10 -1.02,-1.52 -8.469,-11.48 M 499.449,1227.03 c -57.34,-20.35 -108.32,-46.01 -153,-77.03 -45,-31.33 -82,-65.82 -110.98,-103.48 11.992,10.32 24.652,20.51 38.011,30.51 27.301,30.67 60,58.83 97.969,84.49 38.352,25.67 81.012,47.5 128,65.51 m 434.5,430 c 0.352,0.67 0.5,1.33 0.5,1.99 -0.969,-1.68 -2.5,-3.67 -4.488,-6.01 1.68,0.35 3.008,1.68 3.988,4.02 m -173.48,-424.02 c 66.64,-1.99 126.992,-13.17 180.98,-33.48 -11.328,7.97 -23.48,15.16 -36.488,21.49 -45,9.33 -93.16,13.32 -144.492,11.99 m 6.992,521.99 13.988,-9.49 c -4.34,4.02 -8.48,7.85 -12.5,11.52 l -1.488,-2.03 m -411.012,162.5 c -0.32,0 -2,-0.82 -5,-2.5 -2.969,-1.99 -5.828,-4.49 -8.48,-7.5 -2.348,-2.97 -2.848,-6.13 -1.52,-9.49 2.34,-3.01 5.352,-3.48 9.02,-1.49 3.672,2.35 6.832,4.85 9.492,7.5 -0.352,0.32 -0.512,0.51 -0.512,0.51 -1.328,3.32 -0.82,6.49 1.531,9.49 2.301,3.01 5,5.51 7.969,7.5 3,1.64 4.68,2.5 5,2.5 -0.32,0 -2.5,0.51 -6.488,1.49 -3.672,1.01 -7.152,2.5 -10.512,4.49 -3.32,2.03 -4.14,4.84 -2.5,8.52 0,0.35 0,0.5 0,0.5 -2.34,0.32 -4.84,0.32 -7.5,0 -3,-0.35 -5.5,-1.52 -7.5,-3.51 -0.969,-0.98 -1.988,-2.15 -3,-3.48 -1.648,-3.67 -0.828,-6.52 2.5,-8.51 3.352,-2 7.031,-3.52 11.012,-4.5 3.668,-1.01 5.82,-1.52 6.488,-1.52 m 5,-15 c 2.34,-0.98 4.84,-0.66 7.5,1.02 3,1.99 5.5,4.18 7.5,6.48 2.34,2.03 3.512,3.16 3.512,3.52 0,-0.67 -0.512,-3.83 -1.481,-9.5 l -1.531,0.51 c 0,-0.35 -0.308,-2.34 -0.969,-6.01 -0.671,-3.68 -1.839,-7.5 -3.519,-11.49 -1.992,-3.67 -4.492,-5.86 -7.5,-6.52 -3.32,0.35 -5,3.01 -5,8.01 0,5 0.508,9.64 1.488,13.98" /><path
         id="path16"
         style="fill:#759e2e;fill-opacity:1;fill-rule:evenodd;stroke:none"
         d="m 551.949,1232.03 c -60.66,-20 -114.84,-46.01 -162.5,-78.01 -47.34,-32.34 -86.168,-68.36 -116.48,-108 35.312,31.32 75.66,59.64 120.98,85 45,25.35 94.172,46.68 147.5,63.98 37.34,12.03 74.332,21.02 111.012,27.03 36.68,6.33 72.66,10 108.008,10.98 50.98,1.01 99.14,-3.17 144.492,-12.5 26.019,-5.31 50.66,-12.35 73.988,-20.98 -33.328,22.97 -72.66,39.81 -117.969,50.47 -45,10.66 -93.871,14.69 -146.531,12.03 -52.648,-2.69 -106.828,-12.69 -162.5,-30" /><path
         id="path18"
         style="fill:#8fccf0;fill-opacity:1;fill-rule:evenodd;stroke:none"
         d="m 595.98,1306.52 c -14.691,-3 -28.679,-2.65 -42.031,0.98 -13.64,4.02 -25.668,11.02 -35.98,21.02 -15.348,0 -30.16,1.32 -44.489,3.98 -26.679,-11.64 -46.839,-21.99 -60.511,-30.98 -14.02,-8.67 -21.02,-13.16 -21.02,-13.51 l 7,-10 29.02,-40.51 5,-7.5 6.48,-8.98 c 55.352,27.34 113.172,46.48 173.52,57.5 60.312,11.01 121.832,12.85 184.492,5.5 l 1.019,8.99 v 1.01 l 0.969,5.98 6.531,58.52 0.969,9.49 c -0.308,0 -5.148,0.86 -14.488,2.5 -9.34,1.68 -21.992,3.36 -38.012,5 -16.328,1.68 -34.488,2.85 -54.488,3.51 -13.981,-9.02 -28.981,-16.99 -45,-24.02 -5.66,-11.99 -13.512,-22.3 -23.512,-30.98 -10,-8.36 -21.84,-14.18 -35.469,-17.5" /><path
         id="path20"
         style="fill:#fdd4c2;fill-opacity:1;fill-rule:evenodd;stroke:none"
         d="m 805.98,1358.52 102.5,-22 c 0,0.32 0.149,2.5 0.469,6.49 0.352,4.02 1.36,7.85 3,11.52 2,3.63 5,5 9.031,3.99 3.981,-1.33 6.129,-3.99 6.481,-8.01 0,-3.99 -0.66,-7.81 -1.992,-11.49 -1.328,-3.67 -2.188,-5.66 -2.5,-6.01 0.312,0 2.812,-0.67 7.5,-1.99 4.652,-1.33 9.492,-3.17 14.492,-5.51 5,-2.35 8.16,-5 9.488,-8.01 0.352,-0.66 0.352,-1.48 0,-2.5 -1.328,-2.97 -4.648,-4.65 -10,-5 -5,-0.66 -10,-0.66 -15,0 -5,0.66 -7.648,1.02 -8,1.02 0.352,0 2.852,-1.33 7.5,-3.99 4.332,-2.69 8.16,-6.01 11.52,-10 3.672,-3.67 4.14,-7.34 1.48,-11.01 -4.328,-3.99 -8.828,-4.65 -13.469,-2 -4.691,3.01 -8.011,5.51 -10,7.5 1.321,-1.32 3.321,-3.67 5.969,-6.99 2.66,-3.67 4.692,-7.19 6.02,-10.51 1.332,-3.67 0.82,-6.52 -1.52,-8.51 -3.328,-1.64 -6.648,-1.49 -10,0.51 -3.328,1.99 -6.14,4.33 -8.48,6.99 -2.348,2.65 -3.668,4.02 -4.02,4.02 0,-0.35 0,-1.83 0,-4.53 -0.32,-2.97 -1.14,-5.98 -2.5,-8.98 -1.328,-3.01 -3.828,-4.65 -7.5,-5 -3.64,0.35 -5.668,2.34 -5.98,6.01 -0.668,3.99 -0.508,7.81 0.511,11.49 0.661,3.67 0.969,5.66 0.969,6.01 l -20.5,3.99 -54.5,10.5 -17.5,3.48 6.531,58.52 m -225,8 c -22.699,-5.66 -41.371,-7.18 -56.019,-4.49 -14.34,2.97 -25.512,7.66 -33.512,13.99 -7.969,6.68 -13.64,13 -17,18.98 -3,5.66 -4.488,8.87 -4.488,9.53 l 5.508,1.49 c 0,-1.02 1.48,-4.18 4.492,-9.5 3.008,-5.35 8.16,-11.01 15.508,-16.99 7.34,-5.66 17.812,-9.69 31.48,-12.03 13.672,-2.3 31.172,-0.82 52.5,4.53 28.672,7.97 49.5,17.5 62.5,28.48 13.012,11.33 21.332,21.17 25,29.49 3.36,8.67 4.852,13.36 4.5,14.02 l 5.5,-0.5 c 0.352,-1.33 -1.168,-6.49 -4.488,-15.51 -3.672,-9.34 -12.34,-19.85 -26.012,-31.49 -13.64,-11.68 -35.469,-21.68 -65.469,-30 m -144.031,85.51 c -6.64,-1.01 -12.808,1.33 -18.469,6.99 -5.671,5.67 -9.531,13.17 -11.531,22.5 -1.64,9.65 -0.66,18.17 3.012,25.51 3.32,6.99 8.32,11.33 15,12.97 6.988,1.02 13.32,-1.33 18.988,-6.99 5.66,-5.67 9.531,-13.17 11.52,-22.5 1.332,-9.65 0.312,-18.17 -3.008,-25.51 -3.32,-6.99 -8.512,-11.33 -15.512,-12.97 m -43,72.97 c -3.328,2.34 -4.34,5.2 -2.969,8.52 5.309,10.35 12.649,16.83 21.989,19.49 8.32,1.68 15.66,1.17 21.992,-1.49 6.328,-2.65 9.648,-4.33 10,-5 3.008,-2.34 3.668,-5.15 1.988,-8.51 -2.34,-3.01 -5.148,-3.48 -8.469,-1.49 -0.359,0.32 -2.699,1.33 -7.031,3.01 -4.648,1.99 -9.808,2.5 -15.469,1.49 -5.671,-1.68 -10.199,-6.02 -13.519,-13.01 -2.34,-3.32 -5.16,-4.34 -8.512,-3.01 m 162.5,-53.98 c 0,-0.36 0.192,-1.84 0.5,-4.5 0.352,-3 1.172,-5.86 2.5,-8.51 1.68,-2.66 4.18,-3.83 7.5,-3.48 3.36,0.31 4.18,-0.51 2.5,-2.5 -1.64,-1.68 -4.328,-3.36 -8,-5 -3.64,-1.37 -7,-1.37 -10,0 -4.34,3.32 -5.668,7.66 -3.988,12.97 1.68,5.35 4.648,9.02 8.988,11.02 m 80,108.51 c 0.352,0.98 3,3.63 8,7.97 5,4.69 11.68,7.7 20,9.02 9.692,0.67 18.672,-3 27,-11.01 2.692,-2.66 2.852,-5.51 0.5,-8.48 -3,-2.69 -5.969,-2.85 -8.98,-0.51 -5.668,5.67 -11.52,8.17 -17.5,7.5 -5.668,-1.01 -10.16,-3.16 -13.52,-6.52 -3.668,-2.97 -5.5,-4.8 -5.5,-5.47 -2.66,-2.69 -5.668,-3.01 -8.988,-1.01 -2.66,2.34 -3.012,5.15 -1.012,8.51 m 43.512,-85.51 c -6.992,-1.01 -13.32,1.33 -18.981,7 -5.671,5.35 -9.531,12.85 -11.531,22.5 -1.328,9.64 -0.308,18 3.012,25 3.32,7.34 8.519,11.68 15.508,13 6.992,0.98 13.32,-1.17 18.98,-6.52 5.672,-5.66 9.34,-13.32 11.02,-22.97 1.64,-9.69 0.82,-18.01 -2.5,-25 -3.668,-7.34 -8.828,-11.68 -15.508,-13.01 m 110,73.48 c -4.34,11.37 -14.34,21.02 -30,29.02 -16.012,7.66 -35.352,14.85 -58.012,21.49 -22.34,6.68 -45.82,13.83 -70.5,21.52 -24.34,7.31 -47.148,16.33 -68.48,26.99 -21.68,10.32 -39.34,23.48 -53.008,39.5 -1.012,-14.65 2.66,-28.68 11.019,-42 8.321,-13.67 17.5,-24.02 27.5,-31.01 -27.699,-5.98 -51.839,-7.35 -72.5,-3.99 -20.359,3.68 -37.699,9.65 -52.031,18.01 -13.988,8.63 -25.32,17.15 -33.988,25.47 -8.32,8.67 -13.981,15.2 -16.992,19.53 -16.328,-16.68 -29.848,-35.66 -40.508,-57.03 -10.66,-20.98 -18.32,-43.48 -23.012,-67.5 -4.328,-23.63 -5.148,-47.5 -2.5,-71.48 0.352,-2.66 0.86,-5.51 1.531,-8.52 0,0 -0.199,0 -0.511,0 0.66,-2.97 1.172,-5.82 1.48,-8.48 l -33,3.01 c -4.648,-10 -6.14,-21.01 -4.5,-33.01 1.68,-8.36 4.852,-15.86 9.5,-22.5 5,-6.68 11.012,-11.83 18,-15.5 9.692,-5.67 20.352,-7.86 32,-6.49 1.36,0 2.692,0.16 4.02,0.47 2.652,0.35 5.312,1.02 8.011,2.03 21.989,-28.36 50.309,-49.02 85,-62.03 6.989,-2.97 14.489,-5.47 22.5,-7.5 7.301,-1.99 15,-3.63 22.969,-5 14.02,-2.66 28.672,-4.14 44.02,-4.49 23.011,-0.31 46.48,1.83 70.511,6.52 23.629,4.65 45.969,11.49 66.989,20.47 15.98,6.68 30.82,14.69 44.492,24.02 20.66,13.68 38.32,29.65 53.008,48.01 14.332,17.97 25,38.17 31.992,60.47 5.66,-0.98 11.488,-0.98 17.5,0 15.348,3.01 27.148,10.51 35.508,22.5 8.32,12.03 11.332,25.66 8.98,41.02 -1.64,8.67 -5,16.17 -10,22.5 -5,6.68 -10.969,11.83 -18,15.5 0.352,-3.36 0.5,-6.68 0.5,-10 l -29.488,-11.52 m -361.992,-330.47 5.511,-7.5 -103.519,-62.03 c 0.348,-0.31 1.328,-2.15 3.008,-5.47 1.992,-3.01 3.48,-6.37 4.492,-10 0.66,-3.67 -0.512,-6.37 -3.512,-8.01 -3.64,-1.01 -6.648,-0.35 -8.988,2 -2.34,2.34 -4.18,4.84 -5.512,7.5 -0.969,2.65 -1.48,4.18 -1.48,4.49 0,-0.31 -0.668,-2.15 -1.989,-5.51 -1.371,-3.32 -3.359,-6.48 -6.019,-9.49 -2.34,-3.01 -5.352,-4.14 -8.981,-3.48 -3.011,0.98 -4.531,3.32 -4.531,6.99 0,3.99 0.66,8.01 2.031,12 1.321,3.98 2.301,6.99 2.969,8.98 -0.668,-1.64 -1.84,-3.83 -3.48,-6.48 -1.68,-3.01 -4.02,-5.36 -6.989,-7 -2.699,-1.68 -5.859,-1.68 -9.531,0 -3.64,2.35 -4.5,5.98 -2.5,10.98 2.031,4.69 4.68,9.18 8,13.52 3.36,3.98 5.16,6.17 5.512,6.48 -0.352,-0.31 -2.66,-1.64 -6.992,-3.98 -4.688,-2.35 -9.489,-4.18 -14.489,-5.51 -5.359,-1.33 -9.031,-0.82 -11.019,1.52 -1.68,2.97 -0.512,6.64 3.519,10.98 3.629,4.33 7.809,8.16 12.5,11.52 4.641,3.32 7.141,5.16 7.5,5.47 -0.359,0 -1.179,0.86 -2.5,2.5 -1.679,1.68 -3.359,3.87 -5,6.52 -1.679,2.66 -2.699,5.51 -3.011,8.48 -0.348,2.7 0.66,5 3.011,7.03 3.321,1.99 6.321,1.99 8.981,0 1.019,-0.66 1.988,-1.52 3.008,-2.5 2.652,-3.36 4.652,-6.68 5.98,-10 1.012,-2.69 1.52,-4.02 1.52,-4.02 l 8.98,5.51 94.5,59.49 29.02,-40.98 m -13.008,666.99 c 0,0 -0.16,-1.01 -0.512,-3 -0.308,-1.68 -0.82,-3.83 -1.48,-6.49 -1.02,-3.36 -2.348,-6.52 -4.02,-9.53 -1.648,-2.66 -3.828,-4.14 -6.488,-4.49 -2.66,0 -4.18,1.83 -4.492,5.51 -0.348,3.98 -0.16,8.16 0.511,12.5 0.969,5 1.481,7.85 1.481,8.51 0,-0.35 -0.66,-1.17 -1.992,-2.5 -1.328,-1.37 -3.008,-2.85 -5,-4.53 -2.348,-2.3 -4.848,-3.83 -7.5,-4.49 -2.348,-0.98 -4.34,-0.16 -6.02,2.5 -1.328,3.36 -0.82,6.52 1.531,9.49 2.301,2.7 5,5 7.969,7.03 3,1.99 4.68,2.97 5,2.97 -0.32,0 -2.5,0.35 -6.488,1.02 -3.672,1.01 -7.152,2.65 -10.512,5 -3.32,1.99 -4.14,4.84 -2.5,8.51 0.672,1.33 1.531,2.31 2.5,2.97 4.031,3.01 8.36,4.18 13.012,3.52 4.34,-0.36 6.68,-0.67 6.988,-1.02 -0.308,0 -1.828,1.02 -4.488,3.01 -2.66,2.34 -5,5 -6.992,8.01 -1.989,2.65 -2.188,5.5 -0.508,8.51 2.34,2.66 5.16,3.48 8.519,2.5 3.629,-0.66 6.829,-1.83 9.489,-3.51 3.011,-1.68 4.652,-2.66 5,-3.01 -0.348,0.35 -1.168,1.68 -2.5,4.02 -1.328,2.31 -2.188,5.31 -2.5,8.99 -0.348,3.32 1.172,6.48 4.492,9.49 3.32,2.65 6.488,2.34 9.488,-0.98 2.66,-3.01 5,-6.68 7,-11.01 1.672,-3.99 2.5,-6.33 2.5,-7 l 160.5,-46.01 -11.988,-50 -20,5.51 -50.512,13.51 -89.488,24.49 m 412.5,-101.99 v 0.47 l 130.508,-90 c 0.312,0.35 2.652,1.02 6.992,2.03 4.34,1.33 8.668,1.99 13.008,1.99 4.332,-0.35 6.64,-2.65 6.992,-6.99 -0.352,-4.33 -1.992,-7.5 -5,-9.53 -2.66,-1.99 -5.352,-3.16 -8.012,-3.48 -3,-0.66 -4.488,-0.86 -4.488,-0.5 0.348,0 1.988,-0.67 5,-2 3.008,-1.01 6.019,-2.65 8.988,-5 2.692,-2.34 3.672,-5.15 3,-8.51 -1.328,-3.67 -4.488,-5.31 -9.488,-5 -3.32,0 -6.332,0.35 -8.981,1.01 -2.699,0.67 -4.031,0.98 -4.031,0.98 0.352,0 1.531,-0.98 3.52,-2.97 2.34,-1.68 4.332,-4.18 5.98,-7.5 1.672,-3.01 1.832,-6.52 0.5,-10.51 -1.64,-3.67 -4.328,-4.84 -8,-3.51 -3.988,1.01 -7.5,2.85 -10.469,5.51 -3.359,2.34 -5,3.67 -5,3.98 0,-0.31 0.309,-2.15 0.969,-5.47 0.352,-3.67 0.16,-7.34 -0.5,-11.01 -0.668,-3.68 -2.82,-6.02 -6.488,-7 -3.672,-0.66 -5.82,0.82 -6.481,4.5 -0.671,3.32 -0.859,6.99 -0.511,11.01 0.312,3.63 0.511,5.67 0.511,5.98 0,0 -0.359,-0.67 -1.019,-1.99 -1.332,-1.68 -3.012,-3.52 -5,-5.51 -3.012,-3.32 -6.012,-5.82 -8.981,-7.5 -3.011,-1.99 -5.359,-1.99 -7.031,0 -1.328,2.65 -1.14,6.01 0.5,10 2,3.67 4.18,6.99 6.531,10 2.301,3.01 3.629,4.49 3.981,4.49 l -98.512,70 -30,21.02 31.012,41.01 m 66.488,119.49 c -2.66,-0.35 -4.5,0.82 -5.469,3.48 -1.371,6.02 -3.871,10.2 -7.5,12.5 -4.031,1.68 -7.859,2.34 -11.531,2.03 -3.668,-0.66 -5.66,-1.01 -5.969,-1.01 -2.699,-1.02 -4.531,0 -5.511,3 -0.668,2.66 0.152,4.5 2.5,5.51 0.66,0.67 3.48,1.33 8.48,1.99 5.352,0.67 10.852,-0.5 16.52,-3.51 6.332,-3.67 10.511,-9.85 12.5,-18.48 0.312,-2.69 -1.02,-4.53 -4.02,-5.51 m -17,-31.99 c 0,-3.36 -0.82,-5.51 -2.5,-6.52 -1.328,-0.98 -3,0.35 -5,4.02 -3.668,8.32 -7.808,14.14 -12.5,17.5 -4.648,2.97 -8.668,4.65 -11.988,5 -3.672,0.31 -5.512,0.47 -5.512,0.47 -1.988,1.37 -3.16,2.34 -3.469,3.01 0,1.01 0.661,2.34 1.989,4.02 1.64,1.64 5.98,1.84 13.011,0.47 6.989,-1.33 13.981,-7.15 20.969,-17.5 1.02,1.37 2.352,2.34 4.031,3.01 1.321,1.01 2.809,1.17 4.489,0.51 1.332,-1.33 1.332,-2.86 0,-4.5 -1.68,-1.68 -3.168,-2.85 -4.489,-3.51 0,-0.31 0,-0.51 0,-0.51 1.321,0.35 3.161,0.35 5.469,0 2.031,-0.31 3.352,-1.48 4.02,-3.48 0.312,-1.68 -0.508,-2.5 -2.5,-2.5 -1.989,-0.35 -4.02,-0.15 -6.02,0.51 m -182.5,-14.02 c -7.34,4.02 -12.34,9.84 -15,17.5 -2.648,7.34 -3.16,15.15 -1.48,23.51 1.332,8.32 4.652,15.82 10,22.5 8.98,-8.67 19.14,-16.17 30.511,-22.5 11.321,-6.32 22.809,-11.52 34.489,-15.5 -7.66,-13.32 -16.84,-22.15 -27.5,-26.49 -10.348,-4.33 -20.668,-4.02 -31.02,0.98 m -51.988,175.51 c -4.34,-0.36 -6.481,0.5 -6.481,2.5 0.309,1.99 1.829,3.82 4.489,5.5 -1.328,1.33 -2.348,2.82 -3.008,4.5 -1.012,1.68 -0.66,2.85 1.019,3.51 2.301,0.67 3.981,0 5,-2.03 1.321,-1.64 2.141,-3.16 2.5,-4.49 0.309,0 0.469,0 0.469,0 0,1.68 0.5,3.67 1.52,6.01 0.66,2 1.832,2.66 3.48,2 1.36,-1.02 2.031,-2.35 2.031,-3.99 0,-1.68 -0.359,-3.36 -1.019,-5 11.68,-1.68 20,-5.19 25,-10.51 5,-5.35 6.988,-9.02 6.019,-11.01 -0.671,-3.67 -2.859,-4.34 -6.531,-1.99 0,0 -1.328,1.48 -3.98,4.49 -2.348,2.65 -6.168,5.35 -11.52,8.01 -5,2.34 -11.328,3.16 -18.988,2.5 m 21.488,44.49 c 8.352,2.34 15.66,1.68 22.031,-1.99 5.309,-3.68 8.821,-8.01 10.469,-13.01 2.031,-4.65 3,-7.35 3,-8.01 0,-2.97 -1.328,-4.8 -3.98,-5.47 -3.008,-0.35 -4.848,0.98 -5.508,3.99 0,0.35 -0.66,2.14 -1.992,5.5 -1.328,3.32 -3.668,6.33 -6.989,8.99 -4.031,2.34 -8.871,2.65 -14.531,1.01 -2.66,-0.66 -4.648,0.32 -5.98,3.01 -0.348,2.66 0.82,4.65 3.48,5.98 M 743.48,1950 c -0.359,-0.31 -1.679,-2.15 -4.031,-5.47 -2.34,-3.36 -2.148,-6.37 0.512,-9.02 1.988,-1.64 1.988,-2.5 0,-2.5 -1.68,0 -3.981,0.51 -6.992,1.52 -2.66,1.33 -4.34,3.32 -5,5.98 -0.348,4.02 1.332,6.83 5,8.51 3.672,2 7.152,2.35 10.511,0.98 m 173.469,-77.97 c 9.031,17.31 13.832,35.16 14.5,53.48 1.012,18.67 -0.469,36.33 -4.5,53.01 -3.668,16.68 -8.32,31.17 -13.98,43.51 -14.34,-5.35 -29.848,-8.16 -46.52,-8.51 -17,-0.67 -33.328,1.32 -48.988,6.01 -16.012,4.34 -29.84,11.49 -41.481,21.49 11.321,0 23.161,0.5 35.469,1.48 12.692,1.37 25,3.52 37.031,6.52 11.641,3.01 21.989,7.15 30.969,12.5 -20.308,-3.36 -40.308,-3.16 -60,0.51 -19.328,3.63 -38.32,8.63 -56.988,15 -18.672,6.33 -36.68,11.99 -53.981,16.99 -17.351,5 -34.031,7.35 -50,7 -16.019,-0.36 -31.179,-5.51 -45.511,-15.51 0.312,1.01 1.64,3.36 3.98,6.99 2,3.67 4.031,7.19 6.02,10.51 2.34,3.67 3.672,6.01 3.98,6.99 -8,2.03 -15.82,1.84 -23.469,-0.47 -8.011,-2.69 -14.851,-7.69 -20.511,-15 -6.68,-9.69 -9.18,-19.84 -7.5,-30.51 1.64,-11.01 7.152,-20 16.48,-26.99 1.68,-1.37 3.36,-2.5 5,-3.51 -3.32,-21.68 -1.64,-43.01 5,-63.99 6.332,-21.01 17,-41.01 32,-60 6.36,-8.36 13.672,-16.37 22.031,-24.02 2.649,-2.66 5.309,-5.16 7.969,-7.5 6.672,-5.98 13.86,-11.64 21.52,-16.99 26.992,-18.99 54.652,-31.68 83.011,-38.01 11.989,-2.66 23.821,-4.14 35.469,-4.49 2.031,0 4.172,0 6.52,0 11.332,0.35 22.5,1.83 33.48,4.49 6.36,1.68 12.5,3.67 18.512,6.01 3.32,1.33 6.488,2.66 9.488,3.99 2.66,-3.67 5.86,-6.84 9.5,-9.49 0.66,-0.67 1.52,-1.18 2.5,-1.49 1.012,-0.66 2.031,-1.37 3,-2.03 9.34,-4.65 18.672,-5.82 28.012,-3.48 9.648,2 17.848,7.15 24.488,15.51 7.66,11.33 9.852,23.17 6.531,35.47 -2.031,7.34 -5.859,13.67 -11.531,19.02 -5,-4.68 -9.14,-8.36 -12.5,-11.01 -3,-2.35 -4.648,-3.48 -5,-3.48" /><path
         id="path22"
         style="fill:#b85726;fill-opacity:1;fill-rule:evenodd;stroke:none"
         d="m 885.469,1946.02 c -5.668,2.65 -11.02,3.67 -16.02,3 -5.308,-0.66 -8.16,-1.17 -8.469,-1.52 -2.699,-0.98 -3.679,-2.97 -3.011,-5.98 0.98,-2.34 3.011,-3.36 5.98,-3 0.352,0.35 2.34,0.82 6.012,1.48 3.32,0.35 6.988,-0.31 11.019,-1.99 3.981,-2.35 6.481,-6.49 7.5,-12.5 0.969,-2.66 2.969,-3.83 5.969,-3.48 2.66,0.98 3.832,2.81 3.52,5.47 -1.989,8.67 -6.168,14.84 -12.5,18.52 m -219.02,140.5 c 6.012,2 10.852,1.84 14.531,-0.5 3.629,-2.66 6.129,-5.67 7.5,-8.99 0.969,-3.36 1.481,-5.35 1.481,-6.01 1.019,-2.66 2.848,-3.83 5.508,-3.52 3.011,0.66 4.332,2.5 3.98,5.51 0,0.66 -0.969,3.36 -3,8.01 -1.648,4.64 -5.16,8.98 -10.469,13 -6.371,3.68 -13.679,4.14 -22.031,1.49 -2.66,-0.98 -3.64,-2.81 -2.969,-5.51 0.969,-2.66 2.809,-3.83 5.469,-3.48 m 326.52,-76.99 c -4.02,5 -6.52,10.67 -7.5,16.99 -1.02,6.33 -0.508,12.35 1.48,18.01 -5.969,23.63 -15.82,45.82 -29.488,66.49 -13.981,21.01 -31.68,39.49 -53.012,55.5 -20.66,15 -42.648,25.98 -65.969,33.01 -23.011,6.99 -46.179,10.16 -69.531,9.49 -4.648,-2.34 -9.808,-3.82 -15.469,-4.49 -5.359,-0.35 -10.671,0.47 -16.019,2.5 0,-0.35 -1.012,-2.85 -3.012,-7.5 -1.988,-4.69 -4.84,-9.33 -8.469,-14.02 -4.031,-5 -8.679,-7.81 -14.031,-8.48 -5.308,-1.01 -11.328,1.99 -18,8.99 -1.648,1.68 -3.168,3.32 -4.5,5 -28.668,-13.01 -53,-32.66 -73,-58.99 -5,-7.03 -9.5,-14.18 -13.48,-21.52 0.312,-0.31 0.511,-0.51 0.511,-0.51 7.969,2.34 15.969,2.5 23.981,0.51 -0.66,-0.98 -1.992,-3.32 -3.981,-6.99 -2.351,-3.68 -4.531,-7.35 -6.531,-11.02 -1.988,-3.32 -3.32,-5.66 -3.98,-6.99 14.332,10 29.492,15.35 45.511,16.01 15.969,0.32 32.649,-1.99 50,-6.99 17.649,-5 35.661,-10.66 53.981,-17.03 18.668,-6.33 37.66,-11.33 56.988,-15 19.692,-3.63 39.692,-3.83 60,-0.47 -8.98,-5.35 -19.328,-9.53 -30.969,-12.5 -12.031,-3.01 -24.179,-5.19 -36.531,-6.52 -12.648,-1.33 -24.648,-1.84 -35.969,-1.49 11.989,-10 25.821,-17.34 41.481,-21.99 16.019,-4.33 32.34,-6.37 48.988,-6.01 16.672,0.66 32.34,3.51 47.031,8.51 5.309,-12.03 10,-26.37 13.981,-43.01 3.668,-16.68 5.16,-34.33 4.488,-53 -0.969,-18.32 -5.82,-36.18 -14.488,-53.52 0,0 1.68,1.17 5,3.52 3.008,2.65 6.988,6.32 11.988,11.01 5.672,-5.66 9.5,-12.03 11.531,-19.02 3.629,4.33 7.141,8.67 10.469,13.01 17.692,24.33 28.86,50.5 33.512,78.51 -1.332,0.67 -2.66,1.33 -3.981,1.99 -8.679,4.34 -13.359,9.14 -14.031,14.5 -0.969,5.66 0.352,11.01 4.031,16.01 3.321,5 6.829,9.14 10.469,12.5 4.02,2.97 6.172,4.65 6.52,5 m -261.989,210 c 0,0.67 1.321,3.83 3.981,9.49 2.34,5.67 6.019,10.82 11.019,15.51 5,4.65 11.129,5.98 18.469,3.99 2.352,14.33 3.36,28.32 3.012,41.99 -0.352,13.67 -2.5,25.66 -6.481,36.01 -4.031,10.67 -10.671,18.48 -20,23.48 -0.359,0 -4.179,-1.13 -11.531,-3.48 -6.988,-1.99 -15.66,-5 -25.969,-9.02 -10.359,-3.63 -20.199,-8.16 -29.531,-13.48 -8.988,-5.35 -15.668,-11.17 -20,-17.5 -3.988,-6.32 -3.64,-13 1.012,-20 5.66,-7.65 12.5,-17.18 20.508,-28.51 7.652,-11.33 15.66,-23.17 23.98,-35.51 9.031,2.7 19.5,1.68 31.531,-2.97 m 362.5,-265 c -8.68,2.66 -19.18,5.98 -31.53,10 -13.67,4.34 -27.81,8.63 -42.5,12.97 -0.66,9.34 -4.84,19.18 -12.5,29.53 0.35,0 2.85,2.15 7.5,6.49 4.69,3.98 8.67,8.98 12,15 3,6.32 2.34,12.65 -2,18.98 20,9.69 39.34,16.02 58.01,19.02 18.99,3.01 34.34,-0.86 46.02,-11.52 0,-0.31 0.15,-4.34 0.47,-11.99 0,-7.35 -0.32,-16.49 -0.98,-27.5 -0.67,-10.98 -2.19,-21.64 -4.49,-31.99 -2.35,-10.36 -6.02,-18.52 -11.02,-24.5 -4.65,-5.66 -11.01,-7.18 -18.98,-4.49" /><path
         id="path24"
         style="fill:#5e3811;fill-opacity:1;fill-rule:evenodd;stroke:none"
         d="m 645.98,1572.5 c 0.309,0.35 2.141,2.19 5.469,5.51 3.672,3.36 8.352,5.51 14.02,6.52 5.66,0.31 11.48,-2.19 17.5,-7.5 3.011,-2.34 5.82,-2.19 8.48,0.47 2.34,3.01 2.34,5.86 0,8.52 -8.64,8 -17.66,11.68 -27,11.01 -8.32,-1.37 -15.148,-4.33 -20.5,-9.02 -5,-4.65 -7.66,-7.35 -7.969,-8.01 -1.679,-3.32 -1.179,-6.33 1.481,-8.98 3.32,-1.68 6.168,-1.18 8.519,1.48 m -230,-31.48 c 5.661,1.32 10.661,1.01 15,-1.02 4.329,-1.64 6.641,-2.81 6.989,-3.48 3.672,-1.68 6.64,-1.01 8.98,2 1.68,3.32 1.02,6.17 -1.988,8.51 -0.66,0.67 -4.18,2.31 -10.512,5 -5.969,2.31 -13.16,2.81 -21.48,1.49 -9.34,-2.66 -16.68,-9.18 -21.989,-19.5 -1.371,-3.67 -0.511,-6.52 2.5,-8.51 3.629,-1.33 6.481,-0.31 8.469,3.01 3.672,6.99 8.36,11.17 14.031,12.5 M 746.449,1745 c 17.692,-17.97 32.5,-38.16 44.531,-60.47 11.989,-22.34 20.309,-46.52 25,-72.5 1.321,-7.69 2.141,-15.19 2.5,-22.5 0.309,-3.36 0.661,-6.68 0.969,-10 l -29.488,-11.52 c -4.34,11.33 -14.492,21.01 -30.512,29.02 -15.66,7.66 -34.84,14.81 -57.5,21.49 -22.648,6.68 -46.168,13.67 -70.5,21.01 -24.34,7.66 -47.308,16.84 -68.988,27.5 -21.68,10.31 -39.34,23.48 -53.012,39.49 -0.66,-14.68 3.172,-28.67 11.531,-41.99 7.969,-13.67 16.989,-24.02 26.989,-31.01 -27.66,-6.02 -51.68,-7.35 -71.989,-3.99 -20.671,3.63 -38.011,9.65 -52.031,17.97 -14.34,8.36 -25.668,16.84 -33.988,25.51 -8.32,8.67 -14.18,15.15 -17.5,19.49 -16.332,-16.64 -29.84,-35.66 -40.512,-56.99 -10.66,-21.33 -18.16,-43.83 -22.5,-67.5 -4.328,-23.67 -5.308,-47.5 -3,-71.49 0.66,-2.65 1.172,-5.5 1.52,-8.51 0.312,-3.01 0.82,-5.82 1.48,-8.48 l -33,2.97 c -0.32,0 -0.668,0 -0.98,0 -3.36,10.35 -6.02,21.17 -8.008,32.5 -6.012,36.02 -4.84,70.66 3.519,104.02 8.629,33.68 23.469,64.5 44.489,92.5 20.66,28.01 46.48,51.64 77.5,70.98 30.66,19.02 65,32.03 103.011,39.02 37.301,6.33 73.469,5.98 108.469,-1.01 34.692,-6.99 66.531,-19.85 95.512,-38.48 16.988,-10.66 32.5,-23.01 46.488,-37.03" /><path
         id="path26"
         style="fill:#f8a88f;fill-opacity:1;fill-rule:evenodd;stroke:none"
         d="m 676.949,1443.52 -5.969,0.5 c 0.661,-0.66 -0.859,-5.35 -4.531,-14.02 -3.328,-8.32 -11.488,-18.16 -24.5,-29.49 -13.32,-10.98 -34.14,-20.51 -62.5,-28.48 -21.328,-5.35 -38.828,-6.83 -52.5,-4.53 -13.668,2.34 -24.14,6.37 -31.48,12.03 -7.66,5.98 -12.848,11.64 -15.508,16.99 -3.012,5.32 -4.492,8.48 -4.492,9.5 l -5.508,-1.49 c 0,-0.66 1.488,-3.87 4.488,-9.53 3.012,-5.98 8.52,-12.3 16.531,-18.98 7.969,-6.33 19.329,-11.02 33.981,-13.99 14.34,-2.69 33.008,-1.17 56.019,4.49 30,8.32 51.829,18.32 65.469,30 13.672,11.64 22.18,22.15 25.5,31.49 3.672,9.02 5.352,14.18 5,15.51 m -125.969,3.51 c 2.969,-1.68 6.481,-1.68 10.469,0 3.672,1.64 6.172,3.32 7.5,5 1.672,1.99 0.852,2.81 -2.5,2.5 -3.328,-0.35 -5.828,0.82 -7.5,3.48 -1.328,2.65 -2.148,5.51 -2.5,8.51 -0.32,3.01 -0.469,4.5 -0.469,4.5 -4.339,-2 -7.191,-5.67 -8.519,-11.02 -1.68,-5.31 -0.512,-9.65 3.519,-12.97 m 134.489,445.98 c -1.02,-2.35 -0.508,-4.85 1.48,-7.5 2,-3.01 5.16,-5.51 9.5,-7.5 4.332,-1.99 8.16,-3.01 11.52,-3.01 3.672,0 6.172,1.02 7.5,3.01 0.98,2.34 0.312,5 -1.989,8.01 -2.031,2.65 -5,5.15 -9.031,7.5 -4.328,1.99 -8.32,3 -11.988,3 -3.672,0 -6.012,-1.17 -6.992,-3.51 m 2.5,46.01 c 8.98,-8.67 19.14,-16.17 30.511,-22.5 10.969,-6.32 22.301,-11.52 33.981,-15.5 -7.66,-13.32 -16.68,-22.15 -26.992,-26.49 -10.348,-4.33 -20.668,-4.02 -31.02,0.98 -7.34,4.02 -12.5,9.84 -15.5,17.5 -2.66,7.34 -3.168,15.15 -1.488,23.51 1.68,8.32 5.16,15.82 10.508,22.5 m 39.492,1.49 c -0.352,4.02 1.328,6.83 5,8.51 3.988,2 7.66,2.35 11.019,0.98 -0.671,-0.31 -2.191,-2.15 -4.531,-5.47 -2,-3.36 -1.648,-6.37 1.012,-9.02 1.988,-1.64 1.988,-2.5 0,-2.5 -1.992,0 -4.34,0.51 -6.992,1.52 -3.008,1.33 -4.848,3.32 -5.508,5.98" /><path
         id="path28"
         style="fill:#f37a7d;fill-opacity:1;fill-rule:evenodd;stroke:none"
         d="m 685.469,1893.01 c -1.02,-2.35 -0.508,-4.85 1.48,-7.5 2,-3.01 5.16,-5.51 9.5,-7.5 4.332,-1.99 8.352,-3.01 12.031,-3.01 3.321,0 5.661,1.02 6.989,3.01 0.98,2.34 0.511,5 -1.52,8.01 -2.308,2.65 -5.469,5.15 -9.5,7.5 -4.328,1.99 -8.32,3 -11.988,3 -3.32,0 -5.66,-1.17 -6.992,-3.51" /><path
         id="path30"
         style="fill:#e68cba;fill-opacity:1;fill-rule:evenodd;stroke:none"
         d="m 1006.45,2007.03 c 0.66,0 3.35,1.99 8,5.98 4.69,4.33 8.52,9.49 11.53,15.51 3.32,6.01 2.81,12.34 -1.53,18.98 -1.64,2.03 -3.98,4.02 -6.99,6.02 -1.99,1.68 -3.98,2.85 -6.01,3.51 -0.32,0 -0.67,0.16 -0.98,0.47 -6.02,2.03 -11.021,1.68 -15.001,-0.98 -4.02,-2.65 -6.989,-6.68 -9.02,-11.99 -1.648,-5.66 -2.148,-11.68 -1.488,-18.01 1.019,-6.32 3.519,-11.99 7.5,-16.99 -0.352,0 -2.34,-1.68 -6.012,-5 -3.64,-3.36 -7.308,-7.5 -10.98,-12.5 -3.36,-5.35 -4.688,-10.66 -4.02,-16.01 0.66,-5.36 5.352,-10.16 14.02,-14.5 1.64,-0.66 3.16,-1.32 4.492,-1.99 7.34,-2.69 13.319,-3.16 18.009,-1.52 4.33,1.33 7.5,4.18 9.49,8.51 1.33,3.32 1.84,7 1.49,10.98 -0.32,9.34 -4.5,19.18 -12.5,29.53 M 768.48,1823.52 c -1.371,-4.65 -4.179,-8.52 -8.519,-11.49 -1.992,-1.68 -4.34,-2.85 -6.992,-3.51 -1.02,-0.36 -1.989,-0.67 -3.008,-1.02 -0.66,-0.31 -1.481,-0.47 -2.5,-0.47 -9.652,-1.01 -17.66,1.49 -23.981,7.5 -6.371,6.33 -11.019,12.97 -14.031,20 -3.32,6.64 -5,10.31 -5,10.98 -8,-3.32 -16.828,-3.83 -26.48,-1.49 -10,2.66 -17.848,7.66 -23.52,15 -3,3.99 -4.488,8.83 -4.488,14.5 0.66,6.32 2.5,10.5 5.508,12.5 -8.008,7.65 -15.348,15.66 -21.989,23.98 l -45.511,4.02 -1.02,-3 -11.988,-50 -1.992,-12 -0.508,-4.02 c 20,-1.64 39.488,-5.16 58.519,-10.47 25.661,-7.69 50.149,-18.01 73.469,-31.01 23.36,-13.32 44.852,-28.83 64.5,-46.49 4.02,-3.67 8.16,-7.5 12.5,-11.52 0.66,-0.67 1.36,-1.33 2.031,-1.99 l 8.469,11.48 1.02,1.52 3.48,4.5 31.012,41.48 h -0.512 l -16.48,16.52 c -2.348,0 -4.688,0 -6.989,0 -11.371,0.32 -23.011,1.84 -35,4.5 m -75,362.5 c -1.371,1.68 -2.699,3.32 -4.031,5 -5.66,8 -7.34,14.84 -5,20.5 2.352,5.32 7.192,8.99 14.5,10.98 9.332,2.34 20,1.37 32.031,-2.97 0,0.31 1.129,3.32 3.469,8.99 2.66,6.01 6.531,11.32 11.531,16.01 4.641,4.65 10.821,5.98 18.469,3.99 2.352,-1.02 5,-2.66 8.012,-5 7.66,-6.68 10.82,-13.17 9.488,-19.5 -1.64,-6.01 -6.168,-11.01 -13.469,-15 -4.691,-2.34 -9.691,-3.82 -15,-4.49 -5.671,-0.66 -11.019,0.16 -16.019,2.5 0,-0.35 -1.012,-2.85 -3.012,-7.5 -1.988,-4.69 -5,-9.33 -8.98,-14.02 -3.668,-5 -8.168,-8.01 -13.52,-8.99 -5.308,-0.66 -11.48,2.5 -18.469,9.5" /><path
         id="path32"
         style="fill:#000000;fill-opacity:1;fill-rule:evenodd;stroke:none"
         d="m 422.461,1499.53 c -1.012,3.99 -3.672,5.82 -8.012,5.47 -3.98,-0.98 -5.82,-3.48 -5.5,-7.5 1.36,-3.98 4.02,-5.82 8,-5.47 4.031,0.98 5.86,3.48 5.512,7.5 m 32.5,-9.02 c 1.68,-9.65 0.82,-18.17 -2.5,-25.51 -3.672,-6.99 -8.832,-11.33 -15.512,-12.97 -6.988,-1.01 -13.32,1.33 -18.98,6.99 -5.668,5.67 -9.489,13.32 -11.52,23.01 -1.328,9.65 -0.32,17.97 3,25 3.36,7.31 8.52,11.64 15.512,12.97 6.988,1.02 13.32,-1.33 18.988,-6.99 5.66,-5.31 9.332,-12.81 11.012,-22.5 m 227.5,61.01 c -3.981,-1.32 -5.82,-4.02 -5.512,-8 1.02,-3.99 3.672,-5.82 8.012,-5.51 3.668,1.33 5.508,4.02 5.508,8.01 -1.328,3.98 -4.02,5.82 -8.008,5.5 m 15.508,-19.49 c 1.332,-9.69 0.312,-18.01 -3.008,-25 -3.32,-7.34 -8.512,-11.68 -15.512,-13.01 -6.64,-1.01 -12.808,1.33 -18.469,7 -5.671,5.66 -9.531,13.16 -11.531,22.5 -1.64,9.64 -0.66,18.16 3.012,25.5 3.32,7 8.32,11.33 15,13.01 6.988,0.98 13.32,-1.37 18.988,-7.03 5.66,-5.66 9.531,-13.32 11.52,-22.97 m 186.992,360 c -0.66,1.99 -1.992,2.97 -3.981,2.97 -2.031,0.35 -3.679,0.35 -5,0 0,0.35 -0.199,0.51 -0.511,0.51 1.332,1.01 2.812,2.34 4.492,4.02 1.68,1.64 1.68,2.97 0,3.99 -1.332,0.66 -2.852,0.66 -4.492,0 -1.328,-1.02 -2.5,-2 -3.52,-3.01 -7.34,10 -14.488,15.66 -21.48,16.99 -6.989,1.68 -11.328,1.52 -13.008,-0.47 -1.332,-1.68 -1.84,-2.85 -1.481,-3.51 0.309,-1.02 1.321,-2.15 2.969,-3.52 0.352,0 2.18,-0.16 5.5,-0.47 3.672,-0.35 7.66,-2.03 12,-5 4.68,-3.36 9.02,-9.18 13,-17.5 1.68,-3.67 3.36,-5 5,-4.02 1.68,1.01 2.5,3.16 2.5,6.52 2,-0.35 3.832,-0.51 5.512,-0.51 1.988,0 2.848,0.98 2.5,3.01 m -208.512,143.99 c 0,0.35 -1.14,1.83 -3.48,4.49 -2.66,2.65 -6.52,5.35 -11.52,8.01 -5.32,2.34 -11.84,3.32 -19.5,3 -4.328,-0.35 -6.328,0.51 -5.969,2.5 0,1.64 1.481,3.32 4.489,5 -1.328,1.33 -2.5,3.01 -3.52,5 -0.66,1.64 -0.148,2.82 1.531,3.48 1.989,0.35 3.629,-0.31 5,-1.99 1.321,-1.64 2.141,-3.17 2.5,-4.49 0,0 0.149,0 0.469,0 0,1.68 0.352,3.51 1.012,5.5 0.66,2 1.84,2.66 3.519,2 1.321,-1.02 1.989,-2.35 1.989,-3.99 0,-1.68 -0.16,-3.16 -0.508,-4.53 11.328,-1.99 19.488,-5.66 24.488,-10.98 5,-5 7.192,-8.67 6.531,-11.01 -0.671,-1.99 -1.531,-3.17 -2.5,-3.48 -0.671,0 -2.191,0.47 -4.531,1.49" /><path
         id="path34"
         style="fill:#e68dbb;fill-opacity:1;fill-rule:nonzero;stroke:none"
         d="m 13.9492,631.328 v 167.344 c 0,24.879 -1.0586,45.777 -3.1289,62.656 -1.99217,16.953 -5.58983,34.453 -10.7812375,52.5 H 217.539 l -15.16,-32.5 -15.469,-32.656 c -15.43,8.129 -30.539,13.789 -45.308,17.027 -14.692,3.321 -32.34,5 -52.9731,5 H 74.4102 V 740.551 H 203.16 L 184.879,708.199 166.602,676.02 c -12.93,7.808 -26.332,13.281 -40.153,16.402 -13.871,3.199 -31.2185,4.848 -52.0388,4.848 v -65.942 c 0,-25.117 0.9804,-46.168 2.9687,-63.129 2.0703,-16.871 5.7109,-34.289 10.9414,-52.179 H 0.199219 c 5.070311,17.57 8.671871,34.878 10.781281,51.871 1.9492,16.879 2.9687,38.007 2.9687,63.437 z M 332.699,509.922 c -27,0 -47.777,5.738 -62.347,17.187 -14.493,11.563 -21.723,28.012 -21.723,49.371 0,14.141 5.082,27.5 15.32,40 10.192,12.579 24.063,22.54 41.563,29.848 l 81.25,33.442 v 25.152 c 0,15.078 -4.692,27.066 -14.063,35.937 -9.301,8.832 -21.801,13.282 -37.5,13.282 -10.238,0 -20.078,-1.719 -29.539,-5.161 -9.488,-3.429 -19.922,-9.179 -31.25,-17.179 l 15.32,53.121 c 10.821,4.566 21.29,7.887 31.399,10 10.199,2.066 20.551,3.129 31.101,3.129 29.758,0 52.11,-7.821 67.032,-23.442 15,-15.55 22.5,-38.75 22.5,-69.687 V 596.801 c 0,-23.051 0.699,-40.43 2.187,-52.192 1.442,-11.8 4.063,-21.328 7.813,-28.589 h -65 v 26.402 l -42.973,-32.031 z m 54.063,47.969 v 75.937 H 315.66 c -1.789,0 -3.98,-5.156 -6.558,-15.469 -2.622,-10.238 -3.903,-18.75 -3.903,-25.629 0,-13.039 4.211,-22.808 12.653,-29.371 8.519,-6.48 21.25,-9.687 38.128,-9.687 10.5,0 20.54,1.406 30.149,4.219 z" /><path
         id="path36"
         style="fill:#e68dbb;fill-opacity:1;fill-rule:nonzero;stroke:none"
         d="m 505.039,596.801 v 114.527 c 0,14.883 -0.898,28.203 -2.66,40 -1.68,11.871 -4.68,25.391 -9.059,40.621 h 66.879 V 738.98 l 34.531,42.661 12.34,7.339 c 11.879,6.02 25.391,9.071 40.629,9.071 21.871,0 38.512,-6.84 50,-20.473 8.629,-10.238 13.903,-23.906 15.781,-41.098 l 40.93,45.629 11.102,6.411 c 11.867,6.32 24.449,9.531 37.808,9.531 21.328,0 37.578,-6.68 48.75,-20 11.25,-13.36 16.879,-32.891 16.879,-58.602 V 596.801 c 0,-23.36 0.66,-40.942 2.031,-52.821 1.321,-11.871 3.79,-21.21 7.34,-27.96 h -76.25 c 4.379,8.429 7.379,18.589 9.059,30.46 1.762,11.879 2.66,28.641 2.66,50.321 v 105.308 c 0,14.879 -3.519,25.981 -10.469,33.282 -6.871,7.269 -17.461,10.937 -31.718,10.937 -13.243,0 -27.774,-4.488 -43.59,-13.437 L 714.73,724.77 V 596.801 c 0,-21.571 0.86,-38.25 2.649,-50 1.762,-11.68 4.891,-21.961 9.383,-30.781 h -78.75 c 4.367,8.429 7.379,18.589 9.058,30.46 1.758,11.879 2.66,28.641 2.66,50.321 v 105.148 c 0,15 -3.519,26.141 -10.468,33.442 -6.992,7.269 -17.66,10.937 -32.032,10.937 -12.191,0 -27.152,-4.648 -44.851,-13.906 l -12.18,-6.402 V 596.801 c 0,-21.571 0.852,-38.25 2.653,-50 1.757,-11.68 4.847,-21.961 9.218,-30.781 h -78.75 c 4.379,8.429 7.418,18.589 9.219,30.46 1.641,11.879 2.5,28.641 2.5,50.321 z" /><path
         id="path38"
         style="fill:#e68dbb;fill-opacity:1;fill-rule:nonzero;stroke:none"
         d="m 939.961,596.801 v 114.527 c 0,14.883 -0.859,28.203 -2.5,40 -1.68,11.871 -4.762,25.391 -9.223,40.621 h 78.752 c -4.37,-8.75 -7.459,-19.058 -9.22,-30.929 -1.79,-11.879 -2.649,-28.442 -2.649,-49.692 V 596.801 c 0,-21.571 0.859,-38.25 2.649,-50 1.761,-11.68 4.85,-21.961 9.22,-30.781 h -78.752 c 4.461,8.429 7.543,18.589 9.223,30.46 1.641,11.879 2.5,28.641 2.5,50.321 z m 26.09,310.469 c 10.398,0 19.219,-4.18 26.41,-12.5 7.187,-8.25 10.779,-18.36 10.779,-30.321 0,-12.109 -3.592,-22.258 -10.779,-30.469 -7.191,-8.121 -16.012,-12.179 -26.41,-12.179 -10.313,0 -19.063,4.058 -26.25,12.179 -7.18,8.211 -10.781,18.36 -10.781,30.469 0,11.961 3.601,22.071 10.781,30.321 7.187,8.32 15.937,12.5 26.25,12.5 z" /><path
         id="path40"
         style="fill:#e68dbb;fill-opacity:1;fill-rule:nonzero;stroke:none"
         d="m 1065.2,596.801 v 218.277 c 0,18.012 -0.9,32.891 -2.66,44.692 -1.68,11.871 -4.69,23.902 -9.06,36.089 l 39.37,7.813 39.38,8.129 c -4.5,-12.5 -7.62,-26.492 -9.38,-41.879 -1.8,-15.434 -2.65,-36.402 -2.65,-62.973 V 596.801 c 0,-21.571 0.85,-38.25 2.65,-50 1.76,-11.68 4.88,-21.961 9.38,-30.781 h -78.75 c 4.37,8.429 7.38,18.589 9.06,30.46 1.76,11.879 2.66,28.641 2.66,50.321 z" /><path
         id="path42"
         style="fill:#e68dbb;fill-opacity:1;fill-rule:nonzero;stroke:none"
         d="m 1378.71,711.328 -45.47,-121.879 c -17.42,-46.25 -33.12,-81.398 -47.19,-105.469 -14.06,-24.058 -29.37,-42.339 -45.93,-54.839 h -72.97 c 18.83,15.121 35.08,31.64 48.75,49.531 13.75,17.93 27.22,40.387 40.47,67.5 l 7.34,13.75 -65.31,151.406 c -7.62,17.692 -15,32.5 -22.19,44.371 -7.19,11.879 -16.05,23.949 -26.56,36.25 h 75.78 c 0.94,-5.859 2.85,-13.039 5.78,-21.558 2.89,-8.442 7.66,-20.621 14.22,-36.563 l 47.5,-119.058 40.16,119.058 c 4.06,12.07 6.6,22.383 7.65,30.942 1.14,8.511 1.02,17.57 -0.31,27.179 h 79.37 c -7.92,-10.429 -14.96,-21.558 -21.09,-33.429 -5.86,-11.879 -12.5,-27.622 -20,-47.192 z" /><path
         id="path44"
         style="fill:#44b5dc;fill-opacity:1;fill-rule:nonzero;stroke:none"
         d="M 313.238,88.8711 V 254.801 c -14.488,-0.621 -26.949,-1.68 -37.34,-3.121 -20.308,-3.051 -37.027,-7.969 -50.16,-14.84 l 8.133,23.75 7.969,23.898 h 198.281 l -6.41,-22.648 -6.723,-22.66 c -16.168,6.019 -29.918,10.351 -41.25,12.968 -10,2.071 -20.226,3.321 -30.617,3.75 V 88.8711 c 0,-15.9414 0.777,-29.8125 2.34,-41.5703 1.559,-11.6797 4.379,-24.4492 8.437,-38.28127 H 302.77 c 3.949,13.44137 6.718,26.01957 8.281,37.82027 1.449,11.6407 2.187,25.6602 2.187,42.0313 z M 469.73,64.9609 V 144.18 c 0,10.308 -0.628,19.57 -1.878,27.808 -1.172,8.211 -3.243,17.582 -6.25,28.133 h 46.25 v -33.91 l 29.687,33.437 c 8.832,3.122 17.262,4.692 25.313,4.692 6.636,0 12.347,-1.328 17.027,-3.91 l -7.649,-41.09 -1.718,1.25 c -7.192,5.191 -15.742,7.808 -25.633,7.808 -7.18,0 -16.68,-2.66 -28.43,-7.968 l -8.597,-3.91 V 64.9609 c 0,-14.9218 0.628,-26.4101 1.878,-34.5312 1.25,-8.1289 3.36,-15.2695 6.399,-21.41017 h -54.527 c 3.007,5.82027 5.16,12.85937 6.41,21.10157 1.129,8.1992 1.718,19.8398 1.718,34.8398 z" /><path
         id="path46"
         style="fill:#44b5dc;fill-opacity:1;fill-rule:nonzero;stroke:none"
         d="M 636.52,144.18 V 73.0898 c 0,-11.0585 2.539,-19.3007 7.66,-24.6914 5.082,-5.3086 12.851,-7.9687 23.281,-7.9687 8.32,0 18.277,2.2695 29.84,6.8711 l 6.41,2.5 V 144.18 c 0,10.39 -0.621,19.73 -1.871,27.968 -1.18,8.204 -3.25,17.543 -6.25,27.973 h 54.531 c -3.051,-6.172 -5.16,-13.359 -6.41,-21.57 -1.25,-8.121 -1.871,-19.602 -1.871,-34.371 V 64.9609 c 0,-14.9218 0.621,-26.4101 1.871,-34.5312 1.25,-8.1289 3.359,-15.2695 6.41,-21.41017 H 705.59 V 41.5195 l -30,-32.64841 C 664.648,6.05078 656.41,4.64844 650.898,4.64844 c -17.187,0 -30.277,4.53125 -39.218,13.58986 -8.871,9.1406 -13.282,22.5 -13.282,40 V 144.18 c 0,10.308 -0.628,19.57 -1.878,27.808 -1.168,8.211 -3.239,17.582 -6.25,28.133 h 54.531 c -3.039,-6.172 -5.231,-13.281 -6.563,-21.41 -1.168,-8.242 -1.718,-19.762 -1.718,-34.531 z" /><path
         id="path48"
         style="fill:#44b5dc;fill-opacity:1;fill-rule:nonzero;stroke:none"
         d="m 882.148,159.34 c -5.429,6.32 -10.937,10.969 -16.558,13.898 -5.629,2.891 -11.879,4.383 -18.75,4.383 -7.738,0 -14.07,-2.031 -19.07,-6.101 -5,-3.981 -7.5,-8.899 -7.5,-14.84 0,-5.86 1.64,-11.09 5,-15.782 3.32,-4.687 9.609,-10.628 18.91,-17.808 15.511,-12.11 26.441,-22.66 32.808,-31.7189 6.25,-9.0703 9.383,-18.8711 9.383,-29.3828 0,-16.4766 -5.75,-30.1094 -17.191,-40.9375 C 857.699,10.1992 843.32,4.80078 826.051,4.80078 c -9.492,0 -17.61,0.58985 -24.371,1.71875 -6.801,1.0625 -15.078,3.17188 -24.84,6.41017 v 45.4687 c 7.379,-8.8671 14.719,-15.4687 22.031,-19.8476 7.379,-4.3711 15,-6.5625 22.809,-6.5625 7.5,0 13.672,2.1914 18.59,6.5625 4.89,4.4609 7.351,10.039 7.351,16.7187 0,5.3907 -2,10.6289 -5.941,15.6289 -3.871,4.8829 -11.371,11.6016 -22.5,20.1524 -14.059,10.9372 -23.981,20.7892 -29.692,29.5392 -5.617,8.75 -8.437,18.43 -8.437,29.058 0,15.704 6.179,28.75 18.597,39.063 12.5,10.391 28.204,15.629 47.192,15.629 6.871,0 12.808,-0.629 17.808,-1.879 5.082,-1.172 10.942,-3.242 17.5,-6.25 z" /><path
         id="path50"
         style="fill:#44b5dc;fill-opacity:1;fill-rule:nonzero;stroke:none"
         d="m 968.238,4.80078 c -15,0 -25.937,4.41797 -32.808,13.28902 -6.879,8.9415 -10.309,23.1993 -10.309,42.8086 V 173.711 H 898.09 l 65,68.59 h 0.148 v -42.18 h 44.532 v -26.41 H 963.238 V 76.8398 c 0,-12.8203 2.192,-22.4609 6.563,-28.9101 4.461,-6.3711 11.097,-9.5313 19.847,-9.5313 5.391,0 10.352,0.6211 14.842,1.8711 4.57,1.3321 10,3.6407 16.25,6.8789 l -15,-36.7187 c -6.791,-2.19142 -12.65,-3.62892 -17.65,-4.37892 -4.93,-0.82031 -11.531,-1.25 -19.852,-1.25 z" /><path
         id="path52"
         style="fill:#44b5dc;fill-opacity:1;fill-rule:nonzero;stroke:none"
         d="m 1128.24,159.34 c -5.43,6.32 -10.94,10.969 -16.56,13.898 -5.63,2.891 -11.88,4.383 -18.75,4.383 -7.73,0 -14.06,-2.031 -19.06,-6.101 -5,-3.981 -7.5,-8.899 -7.5,-14.84 0,-5.86 1.64,-11.09 5,-15.782 3.32,-4.687 9.61,-10.628 18.9,-17.808 15.51,-12.11 26.45,-22.66 32.82,-31.7189 6.25,-9.0703 9.37,-18.8711 9.37,-29.3828 0,-16.4766 -5.74,-30.1094 -17.19,-40.9375 -11.48,-10.8516 -25.86,-16.25002 -43.12,-16.25002 -9.49,0 -17.62,0.58985 -24.38,1.71875 -6.79,1.0625 -15.07,3.17188 -24.84,6.41017 v 45.4687 c 7.38,-8.8671 14.73,-15.4687 22.03,-19.8476 7.38,-4.3711 15,-6.5625 22.81,-6.5625 7.5,0 13.68,2.1914 18.6,6.5625 4.88,4.4609 7.34,10.039 7.34,16.7187 0,5.3907 -1.99,10.6289 -5.94,15.6289 -3.86,4.8829 -11.36,11.6016 -22.5,20.1524 -14.06,10.9372 -23.98,20.7892 -29.68,29.5392 -5.63,8.75 -8.44,18.43 -8.44,29.058 0,15.704 6.17,28.75 18.59,39.063 12.5,10.391 28.21,15.629 47.19,15.629 6.87,0 12.81,-0.629 17.81,-1.879 5.08,-1.172 10.94,-3.242 17.5,-6.25 z" /></g></g></svg>